<?xml version="1.0" encoding="UTF-8"?>
<svg width="323px" height="325px" viewBox="0 0 323 325" version="1.1" xmlns="http://www.w3.org/2000/svg" xmlns:xlink="http://www.w3.org/1999/xlink">
    <!-- Generator: Sketch 49.1 (51147) - http://www.bohemiancoding.com/sketch -->
    <title>放大镜</title>
    <desc>Created with Sketch.</desc>
    <defs></defs>
    <g id="监控大盘" stroke="none" stroke-width="1" fill="none" fill-rule="evenodd">
        <g id="空白页面" transform="translate(-464.000000, -376.000000)">
            <g id="Group-2" transform="translate(464.000000, 376.000000)">
                <g id="放大镜">
                    <g id="Group-14" transform="translate(264.886586, 264.292934) scale(-1, -1) rotate(18.000000) translate(-264.886586, -264.292934) translate(191.886586, 207.792934)">
                        <g id="手柄" transform="translate(0.000000, 0.000000)">
                            <path d="M136.475312,63.8600852 L55.4113965,17.4611035 L30.8242186,63.5547872 L110.584624,109.946214 C111.539433,110.501564 112.763659,110.177739 113.319009,109.22293 C113.324337,109.213769 113.329593,109.204565 113.334775,109.195321 L137.226396,66.5738044 C137.763083,65.6163803 137.427894,64.4053198 136.475312,63.8600852 Z" id="Path-6" fill="#DCE1E7"></path>
                            <ellipse id="Oval-5-Copy-2" fill="#A3B1BF" transform="translate(27.063273, 30.689142) rotate(30.000000) translate(-27.063273, -30.689142) " cx="27.0632727" cy="30.6891421" rx="15.7709848" ry="26.3194455"></ellipse>
                            <path d="M123.877246,113.489073 C126.798788,113.489073 129.167165,101.63385 129.167165,87.0096918 C129.167165,72.3855335 126.754787,60.6642677 123.833246,60.6642677 C120.911704,60.6642677 118.587328,72.3855335 118.587328,87.0096918 C118.587328,101.63385 120.955705,113.489073 123.877246,113.489073 Z" id="Oval-5-Copy-2" fill="#A3B1BF" transform="translate(123.877246, 87.076670) rotate(30.000000) translate(-123.877246, -87.076670) "></path>
                            <path d="M123.378261,93.2759268 C124.507683,93.2759268 125.423261,90.4933868 125.423261,87.0609498 C125.423261,83.6285127 124.490673,80.8774137 123.361251,80.8774137 C122.231828,80.8774137 121.333261,83.6285127 121.333261,87.0609498 C121.333261,90.4933868 122.248838,93.2759268 123.378261,93.2759268 Z" id="Oval-5-Copy-3" fill="#DCE1E7" transform="translate(123.378261, 87.076670) rotate(30.000000) translate(-123.378261, -87.076670) "></path>
                            <polygon id="Path-5" fill="#A3B1BF" points="38.9504692 7.26703955 58.6530188 19.1297957 31.9235572 64.154779 12.4896117 52.7541199"></polygon>
                            <ellipse id="Oval-5-Copy" fill="#DCE1E7" transform="translate(43.708111, 40.689142) rotate(30.000000) translate(-43.708111, -40.689142) " cx="43.708111" cy="40.6891421" rx="15.7709848" ry="26.3194455"></ellipse>
                            <polygon id="Path-3" fill="#DCE1E7" points="137.761485 101.739517 120.347899 92.4600819 126.389692 81.5013716 143.743631 90.9643581"></polygon>
                            <path d="M140.831138,102.496305 C141.96056,102.496305 142.876138,99.7137645 142.876138,96.2813275 C142.876138,92.8488904 141.94355,90.0977914 140.814128,90.0977914 C139.684706,90.0977914 138.786138,92.8488904 138.786138,96.2813275 C138.786138,99.7137645 139.701716,102.496305 140.831138,102.496305 Z" id="Oval-5-Copy-4" fill="#A3B1BF" transform="translate(140.831138, 96.297048) rotate(30.000000) translate(-140.831138, -96.297048) "></path>
                        </g>
                    </g>
                    <g id="Group-13" stroke-width="24">
                        <path d="M125.5,232 C186.555883,232 234,185.087121 234,126 C234,66.9128787 186.555883,20 125.5,20 C64.4441165,20 17,66.9128787 17,126 C17,185.087121 64.4441165,232 125.5,232 Z" id="Oval-4" stroke="#A3B1BF"></path>
                        <path d="M124,228 C187.052066,228 236,180.169086 236,120 C236,59.8309144 187.052066,12 124,12 C60.9479337,12 12,59.8309144 12,120 C12,180.169086 60.9479337,228 124,228 Z" id="Oval-4-Copy" stroke="#DCE1E7"></path>
                    </g>
                    <path d="" id="Path-2" stroke="#979797"></path>
                </g>
            </g>
        </g>
    </g>
</svg>