<svg xmlns="http://www.w3.org/2000/svg" viewBox="0 0 348.35 158.6"><defs><style>.cls-1{fill:#231815;}</style></defs><title>资源 2</title><g id="图层_2" data-name="图层 2"><g id="图层_1-2" data-name="图层 1"><path class="cls-1" d="M328.4,44.51,317,53.58q8.57,8.59,19.45,25.72l11.88-8.4Q338.28,54.41,328.4,44.51ZM223.05,37.59q-2.15,8.57-8.58,22.25l12.86,5.44a139,139,0,0,0,8.74-23.07ZM330,124.8V95.13h-48.8V87.22H267.56v7.92H218.1v34.78h49.46v8.9l-67.09-.08v14.15L332,151.35q2,3.13,4.28,7.25L348,151Q339,134.69,330,124.8Zm-62.48-7.25H231.78V107.49h35.78Zm13.68-10.06h35.12v10.06H281.24Zm41.22,29.68-41.22,1.15v-8.4H323l-4.12,3C319.94,134.2,321.14,135.63,322.46,137.17ZM272.84,68.42A337.31,337.31,0,0,0,316.7,43.68L309.93,32.8a235.22,235.22,0,0,1-51.27,27.37,5.15,5.15,0,0,0-2.14.83V39.89h-13v24.9a285.87,285.87,0,0,1-43.36,6.93l6.1,14.33A225.63,225.63,0,0,0,246.79,78q3.47,3.47,10.38,3.46H325V68.5Zm8-56.06h-.06A85.42,85.42,0,0,0,277.29,0l-.46.12-9.55,2.47-4,1c.77,2.31,1.6,5.22,2.48,8.73H202.84v28.2h13.77V25.39H270l-7.92,7.92a113.1,113.1,0,0,1,13.52,14l9.73-8.89a103.11,103.11,0,0,0-12.37-13h58.53V40.56h13.69V12.36Z"/><path class="cls-1" d="M52,62.69l-7.58,4.45v-19H65.88V34.5H44.45V.15H30.77V34.5H6.37V48.18H28.45L0,106.89,13.12,114,30.77,73.71v84.75H44.45V74.23q6.43,13,10.72,23.41l12.69-6.59A298.45,298.45,0,0,0,52,62.69Zm81.79,76.09c-3.3,0-4.94-1.7-4.94-5.11V9.44H75v149H88.63V23.12h26.54V140.34q0,12.53,12.53,12.69h52.65V138.76Z"/></g></g></svg>