<?xml version="1.0" encoding="UTF-8"?>
<svg width="600px" height="415px" viewBox="0 0 600 415" version="1.1" xmlns="http://www.w3.org/2000/svg" xmlns:xlink="http://www.w3.org/1999/xlink">
    <!-- Generator: Sketch 49.1 (51147) - http://www.bohemiancoding.com/sketch -->
    <title>404</title>
    <desc>Created with Sketch.</desc>
    <defs>
        <path d="M26.5836594,322.43473 C67.7476902,379.49585 132.92696,413.992676 202.324849,414 C326.465183,414.005859 415.128393,326.104138 417.937919,200.239794 L418,195.181724 L417.935032,190.106077 C417.361865,167.228309 412.909358,144.876416 404.697342,123.708109 C401.542761,115.579749 397.799133,107.575899 393.568963,99.9206796 L392.36488,97.7410076 L400.324241,72.3407967 L374.407592,71.423811 L372.784823,69.4726529 C370.915175,67.221204 368.996439,65.0166298 367.032947,62.8560005 C365.629628,61.3076716 364.19599,59.7827801 362.745027,58.2857204 C326.291933,20.7010254 277.593002,0 225.625435,0 C119.552115,0 33.2552008,87.5589507 33.2552008,195.181724 C33.2552008,227.400735 40.1086538,257.451791 53.6206545,284.510194 L61.594453,300.481272 L45.9428236,292.216682 C29.2892358,283.420358 13.9191365,272.693383 0,260.171987 C12.224181,283.169871 28.4951766,303.951462 47.9943839,321.298019 L80.4786253,350.202112 L41.7444159,330.78428 C36.6364494,328.222287 31.5732389,325.434709 26.5836594,322.43473" id="path-1"></path>
        <ellipse id="path-3" cx="163" cy="151.5" rx="163" ry="151.5"></ellipse>
        <ellipse id="path-5" cx="204.034782" cy="44.7865303" rx="28.6590401" ry="19.248609"></ellipse>
        <filter x="-3.5%" y="-5.2%" width="107.0%" height="110.4%" filterUnits="objectBoundingBox" id="filter-6">
            <feOffset dx="4" dy="3" in="SourceAlpha" result="shadowOffsetInner1"></feOffset>
            <feComposite in="shadowOffsetInner1" in2="SourceAlpha" operator="arithmetic" k2="-1" k3="1" result="shadowInnerInner1"></feComposite>
            <feColorMatrix values="0 0 0 0 0.807843137   0 0 0 0 0.866666667   0 0 0 0 0.937254902  0 0 0 1 0" type="matrix" in="shadowInnerInner1"></feColorMatrix>
        </filter>
        <ellipse id="path-7" cx="250.948852" cy="57.5664957" rx="12.0971846" ry="8.12497473"></ellipse>
        <filter x="-4.1%" y="-6.2%" width="108.3%" height="112.3%" filterUnits="objectBoundingBox" id="filter-8">
            <feOffset dx="2" dy="1" in="SourceAlpha" result="shadowOffsetInner1"></feOffset>
            <feComposite in="shadowOffsetInner1" in2="SourceAlpha" operator="arithmetic" k2="-1" k3="1" result="shadowInnerInner1"></feComposite>
            <feColorMatrix values="0 0 0 0 0.807843137   0 0 0 0 0.866666667   0 0 0 0 0.937254902  0 0 0 1 0" type="matrix" in="shadowInnerInner1"></feColorMatrix>
        </filter>
        <ellipse id="path-9" cx="458.5" cy="250.5" rx="5.5" ry="10.5"></ellipse>
        <filter x="-9.1%" y="-4.8%" width="118.2%" height="109.5%" filterUnits="objectBoundingBox" id="filter-10">
            <feOffset dx="-2" dy="-1" in="SourceAlpha" result="shadowOffsetInner1"></feOffset>
            <feComposite in="shadowOffsetInner1" in2="SourceAlpha" operator="arithmetic" k2="-1" k3="1" result="shadowInnerInner1"></feComposite>
            <feColorMatrix values="0 0 0 0 0.71188648   0 0 0 0 0.776245246   0 0 0 0 0.853475765  0 0 0 1 0" type="matrix" in="shadowInnerInner1"></feColorMatrix>
        </filter>
        <linearGradient x1="50%" y1="0%" x2="50%" y2="95.4374935%" id="linearGradient-11">
            <stop stop-color="#F0F2F5" offset="0%"></stop>
            <stop stop-color="#5AB0FF" offset="100%"></stop>
        </linearGradient>
    </defs>
    <g id="登录，首页" stroke="none" stroke-width="1" fill="none" fill-rule="evenodd">
        <g id="修改密码" transform="translate(-536.000000, -184.000000)">
            <g id="404" transform="translate(536.000000, 146.000000)">
                <path d="M479.299541,332.432596 C494.360211,332.432596 511.243091,332.432596 524.827942,332.432596 C536.51076,332.432596 542.790133,333.486517 543.202583,339.001918 C543.627674,344.686338 539.810957,345.802983 535.010356,347.468657 C529.407635,349.550533 524.827942,352.565094 524.827942,361.002686 C524.827942,369.440279 530.118727,370.974748 558.632732,369.440279 C576.110818,370.086712 581.589865,370.759623 580.965165,381.78837 C580.340464,392.817116 551.997646,388.928406 538.412794,388.8723 C529.356226,388.834896 497.948524,388.834896 444.189688,388.8723 C434.718427,351.245831 446.421711,332.432596 479.299541,332.432596 Z" id="Path-2" fill="#D9E6F4"></path>
                <path d="M88.2871858,110 C103.347856,110 120.230736,110 133.815588,110 C145.498405,110 151.777778,111.053921 152.190229,116.569322 C152.615319,122.253742 148.798602,123.370387 143.998001,125.036061 C138.395281,127.117937 133.815588,130.132498 133.815588,138.57009 C133.815588,147.007683 139.106372,148.542151 167.620377,147.007683 C185.098464,147.654116 190.57751,148.327027 189.95281,159.355774 C189.32811,170.38452 160.985291,166.49581 147.400439,166.439704 C138.343872,166.4023 106.93617,166.4023 53.1773332,166.439704 C43.7060725,128.813235 55.4093567,110 88.2871858,110 Z" id="Path-2-Copy" fill="#D9E6F4" transform="translate(120.000000, 138.574824) scale(-1, -1) translate(-120.000000, -138.574824) "></path>
                <circle id="Oval-2" fill="#D9E6F4" cx="574" cy="146" r="7"></circle>
                <circle id="Oval-2-Copy" fill="#D9E6F4" cx="13" cy="339" r="13"></circle>
                <g id="Oval-Copy" transform="translate(93.000000, 38.000000)">
                    <mask id="mask-2" fill="white">
                        <use xlink:href="#path-1"></use>
                    </mask>
                    <use id="Combined-Shape" fill="#CEDDEF" xlink:href="#path-1"></use>
                    <ellipse id="Combined-Shape" fill="#D9E6F4" mask="url(#mask-2)" cx="204" cy="180.5" rx="218" ry="206.5"></ellipse>
                    <g id="Oval-Copy-4" mask="url(#mask-2)">
                        <g transform="translate(12.000000, -58.000000)">
                            <mask id="mask-4" fill="white">
                                <use xlink:href="#path-3"></use>
                            </mask>
                            <use id="Mask" stroke="none" fill="#E9F0F4" fill-rule="evenodd" xlink:href="#path-3"></use>
                            <path d="M243,211 C333.022414,211 406,176.123187 406,133.100459 C406,90.0777301 303.409083,48 213.386669,48 C163.588205,48 142.186022,63.0152908 121.922957,70.4846102 C110.508112,74.6923212 113.272827,95.6932928 107.071466,102.051922 C97.3311972,112.039205 80,121.354993 80,133.100459 C80,176.123187 152.977586,211 243,211 Z" id="Oval-Copy-4" stroke="none" fill="#E0EAF2" fill-rule="evenodd" mask="url(#mask-4)"></path>
                        </g>
                    </g>
                    <g id="Oval" mask="url(#mask-2)" transform="translate(204.034782, 44.786530) rotate(-12.000000) translate(-204.034782, -44.786530) ">
                        <use fill="#D9E6F4" fill-rule="evenodd" xlink:href="#path-5"></use>
                        <use fill="black" fill-opacity="1" filter="url(#filter-6)" xlink:href="#path-5"></use>
                    </g>
                    <g id="Oval-Copy-3" mask="url(#mask-2)" transform="translate(250.948852, 57.566496) rotate(-12.000000) translate(-250.948852, -57.566496) ">
                        <use fill="#D9E6F4" fill-rule="evenodd" xlink:href="#path-7"></use>
                        <use fill="black" fill-opacity="1" filter="url(#filter-8)" xlink:href="#path-7"></use>
                    </g>
                </g>
                <g id="Oval-3" transform="translate(458.500000, 250.500000) rotate(25.000000) translate(-458.500000, -250.500000) ">
                    <use fill="#C5D5E7" fill-rule="evenodd" xlink:href="#path-9"></use>
                    <use fill="black" fill-opacity="1" filter="url(#filter-10)" xlink:href="#path-9"></use>
                </g>
                <g id="机蜜" transform="translate(57.000000, 33.000000)">
                    <g id="Group-9"></g>
                    <path d="M284,152.999751 C284,155.208866 282.209365,157 279.999751,157 C277.791134,157 276,155.208866 276,152.999751 C276,150.790635 277.791134,149 279.999751,149 C282.209365,149 284,150.790635 284,152.999751" id="Fill-10" fill="#E0EAF2"></path>
                </g>
                <g id="Group-7" transform="translate(18.000000, 0.000000)">
                    <path d="M138.398721,146.639049 C66.9453522,171.324341 20.893604,210.122023 20.893604,253.752918 C20.893604,328.328087 155.432037,388.783206 321.393604,388.783206 C487.355171,388.783206 621.893604,328.328087 621.893604,253.752918 C621.893604,208.961594 573.359651,169.263996 498.633746,144.699547 C494.562536,143.361229 490.413582,142.06783 486.190495,140.820974" id="Oval-4" stroke="url(#linearGradient-11)" stroke-width="2" stroke-linecap="round" transform="translate(321.393604, 264.802090) rotate(-32.000000) translate(-321.393604, -264.802090) "></path>
                    <g id="机蜜信审" transform="translate(523.000000, 209.000000)">
                        <circle id="Oval-5" fill="#48A7FF" cx="13" cy="13" r="13"></circle>
                        <path d="M13.546875,17.9 L13.78125,17.9 C14.53125,17.8 15.140625,17.3 15.375,16.6 C15.375,16.55 15.375,16.5 15.328125,16.45 C15.28125,16.45 15.234375,16.45 15.1875,16.5 C15.1875,16.5 14.90625,16.95 13.734375,17.1 C13.59375,17.1 13.40625,17.15 13.21875,17.15 C12.421875,17.15 12.046875,16.85 12.046875,16.85 C12,16.8 11.953125,16.8 11.90625,16.85 C11.859375,16.9 11.859375,16.95 11.90625,17 C12.28125,17.55 12.890625,17.9 13.546875,17.9 Z M19.734375,10.95 C19.03125,8.1 16.5,6 13.40625,6 C10.21875,6 7.59375,8.2 6.984375,11.15 C6.46875,11.25 6,11.75 6,12.3 L6,14.65 C6,15.3 6.5625,15.85 7.21875,15.85 C7.640625,15.85 7.921875,15.7 8.15625,15.4 C8.71875,16.75 9.796875,17.9 11.15625,18.45 C11.15625,18.45 11.203125,18.4 11.203125,18.35 C11.203125,18.3 11.25,18.3 11.25,18.3 L11.296875,18.3 C11.015625,18.05 9.796875,16.9 9.5625,15.25 C9.46875,14.5 10.03125,13.8 10.640625,13.7 C11.671875,13.5 12.75,13.3 13.78125,13.1 C14.4375,13 14.953125,12.65 15.1875,12.05 C15.234375,11.9 15.328125,11.65 15.375,11.25 C15.375,11.2 15.421875,11.15 15.515625,11.15 C15.5625,11.15 15.609375,11.15 15.609375,11.2 L15.65625,11.2 C16.078125,11.8 16.921875,13.1 17.015625,14.45 C17.15625,16 17.0625,17.05 15.84375,18.15 L15.84375,18.25 C15.84375,18.3 15.84375,18.3 15.890625,18.35 L15.9375,18.35 C15.9375,18.35 15.984375,18.35 15.984375,18.3 C17.25,17.65 18.1875,16.55 18.65625,15.2 C18.84375,15.45 19.125,15.65 19.453125,15.7 C18.9375,18 16.78125,19.45 14.203125,19.65 C14.0625,19.25 13.640625,19 13.21875,19 C12.609375,19 12.1875,19.45 12.1875,20 C12.1875,20.55 12.703125,21 13.21875,21 C13.734375,21 14.109375,20.7 14.203125,20.3 C17.25,20.05 19.640625,18.3 20.15625,15.6 C20.71875,15.45 21,15.05 21,14.55 L21,12.2 C21,11.45 20.4375,10.95 19.734375,10.95 Z M18.65625,11.6 C17.859375,9.55 15.796875,8.05 13.40625,8.05 C11.015625,8.05 8.953125,9.5 8.15625,11.6 L8.015625,11.45 C8.484375,8.95 10.734375,7.05 13.359375,7.05 C16.078125,7.05 18.28125,8.95 18.703125,11.45 C18.703125,11.5 18.65625,11.55 18.65625,11.6 Z" id="Shape" fill="#FFFFFF" fill-rule="nonzero"></path>
                    </g>
                    <g id="机蜜信审-copy" transform="translate(340.000000, 357.000000)">
                        <circle id="Oval-5" fill="#1F92FD" cx="21" cy="21" r="21"></circle>
                        <g id="数据报表" transform="translate(7.000000, 7.000000)" fill="#FFFFFF">
                            <path d="M14,28 C6.26826668,28 0,21.7336 0,14 C0,6.2664 6.26826668,0 14,0 C21.7317333,0 28,6.2664 28,14 C28,21.7336 21.7317333,28 14,28 Z M21,14 L22.7509333,14 C22.7509333,9.1672 18.8328,5.25093332 14,5.25093332 C9.1672,5.25093332 5.25093332,9.1672 5.25093332,14 L7,14 C7,10.1341333 10.1341333,7 14,7 C17.8658667,7 21,10.1341333 21,14 Z M13.1245333,17.5 C11.676,17.5 10.5,18.676 10.5,20.1245333 C10.5,21.5749333 11.676,22.7490667 13.1245333,22.7490667 C14.5749333,22.7490667 15.7509333,21.5749333 15.7509333,20.1245333 C15.7509333,19.3573333 15.4093333,18.6834667 14.8829333,18.2037333 L17.4085333,12.2546667 C17.5952,11.8122667 17.3357333,11.3530667 16.828,11.2242667 C16.3202667,11.0954667 15.7584,11.3493333 15.5717333,11.7898667 L13.1469333,17.5037333 C13.1394667,17.5037333 13.1338667,17.5 13.1245333,17.5 Z" id="Combined-Shape"></path>
                        </g>
                    </g>
                    <g id="机蜜信审-copy-2" transform="translate(48.000000, 406.000000)">
                        <circle id="Oval-5" fill="#41A4FF" cx="14" cy="14" r="14"></circle>
                        <path d="M13.5789464,18.2104986 C13.5789464,20.3033911 11.8823563,21.9999624 9.78948259,21.9999624 C7.69660892,21.9999624 6,20.3033911 6,18.2104986 C6,16.117625 7.6966089,14.4210348 9.78948257,14.4210348 L12.3157855,14.4210348 L13.5789464,14.4210348 L13.5789464,15.6841957 L13.5789464,18.2104986 Z M14.4210724,18.2104986 C14.4210724,20.3033911 16.1176625,21.9999624 18.2105362,21.9999624 C20.3034099,21.9999624 22,20.3033911 22,18.2104986 C22,16.117625 20.3034099,14.4210348 18.2105362,14.4210348 L15.6842333,14.4210348 L14.4210724,14.4210348 L14.4210724,15.6841957 L14.4210724,18.2104986 Z M13.5789464,9.7894638 C13.5789464,7.69657133 11.8823563,6 9.78948259,6 C7.69660892,6 6,7.69657135 6,9.7894638 C6,11.8823562 7.6966089,13.5789276 9.78948257,13.5789276 L12.3157855,13.5789276 L13.5789464,13.5789276 L13.5789464,12.3157667 L13.5789464,9.7894638 Z M14.4210724,9.7894638 C14.4210724,7.69657133 16.1176625,6 18.2105362,6 C20.3034099,6 22,7.69659013 22,9.7894638 C22,11.8823375 20.3034099,13.5789276 18.2105362,13.5789276 L15.6842333,13.5789276 L14.4210724,13.5789276 L14.4210724,12.3157667 L14.4210724,9.7894638 Z" id="Shape" fill="#FFFFFF" fill-rule="nonzero"></path>
                    </g>
                </g>
            </g>
        </g>
    </g>
</svg>