<?xml version="1.0" encoding="UTF-8"?>
<svg width="80px" height="62px" viewBox="0 0 80 62" version="1.1" xmlns="http://www.w3.org/2000/svg" xmlns:xlink="http://www.w3.org/1999/xlink">
    <!-- Generator: Sketch 49.1 (51147) - http://www.bohemiancoding.com/sketch -->
    <title>笑脸</title>
    <desc>Created with Sketch.</desc>
    <defs></defs>
    <g id="登录，首页" stroke="none" stroke-width="1" fill="none" fill-rule="evenodd">
        <g id="修改密码" transform="translate(-622.000000, -719.000000)" fill="#1F92FD" fill-rule="nonzero">
            <g id="Group-11" transform="translate(622.000000, 693.000000)">
                <g id="笑脸" transform="translate(0.000000, 26.000000)">
                    <path d="M19.2001413,24.7996577 C22.7352428,24.7996577 25.602544,22.0255051 25.602544,18.6010268 L25.602544,6.20034225 C25.602544,2.77586392 22.7352428,0 19.2001413,0 C15.6668065,0 12.801272,2.77586399 12.801272,6.20034225 L12.801272,18.6010268 C12.801272,22.0272165 15.6650398,24.7996577 19.2001413,24.7996577 Z M40.0008833,49.6010268 C22.9596096,49.6010268 8.06660337,42.233521 0,31.2549961 L0,43.6573921 C8.06837004,54.6307828 22.9596096,62 40.0008833,62 C57.0403904,62 71.9333966,54.6307828 80,43.6573921 L80,31.2549961 C71.9351633,42.2318096 57.0421571,49.6010268 40.0008833,49.6010268 Z M60.803392,24.7996577 C64.3367268,24.7996577 67.2022613,22.0255051 67.2022613,18.6010268 L67.2022613,6.20034225 C67.2022613,2.77586392 64.3367268,0 60.803392,0 C57.2665238,0 54.4009894,2.77586399 54.4009894,6.20034225 L54.4009894,18.6010268 C54.4009894,22.0272165 57.2665239,24.7996577 60.803392,24.7996577 Z" id="Shape"></path>
                </g>
            </g>
        </g>
    </g>
</svg>