<?xml version="1.0" encoding="UTF-8"?>
<svg width="460px" height="432px" viewBox="0 0 460 432" version="1.1" xmlns="http://www.w3.org/2000/svg" xmlns:xlink="http://www.w3.org/1999/xlink">
    <!-- Generator: Sketch 49.1 (51147) - http://www.bohemiancoding.com/sketch -->
    <title>背景图</title>
    <desc>Created with Sketch.</desc>
    <defs>
        <rect id="path-1" x="0" y="0" width="460" height="432"></rect>
        <path d="M59.7834634,0 C20.2391818,14.069521 0.467041016,39.5758905 0.467041016,76.5191086 C0.467041016,131.933936 66.344053,153.509838 66.344053,201.985057 C66.344053,250.460277 20.6086829,290.831316 46.6578769,345.165209 C72.7070709,399.499103 134.064147,413.204592 254.043792,413.204592 C334.030223,413.204592 430.59461,419.653113 543.736952,432.550154 L529.446188,0 L59.7834634,0 Z" id="path-3"></path>
        <linearGradient x1="14.0439044%" y1="67.0114945%" x2="73.2471736%" y2="12.3626214%" id="linearGradient-5">
            <stop stop-color="#425DD4" offset="0%"></stop>
            <stop stop-color="#4D91FD" offset="100%"></stop>
        </linearGradient>
        <path d="M62.7921458,0.955459148 C30.0852327,15.8256318 13.7317761,40.1671532 13.7317761,73.9800235 C13.7317761,124.699329 69.3527353,154.465297 69.3527353,202.940517 C69.3527353,251.415736 34.4258202,296.282082 69.3527353,351.04226 C104.27965,405.802438 185.637352,421.46654 327.591782,405.802438 C422.228068,395.359703 490.515764,399.425557 532.45487,418 L532.45487,0.955459148 L62.7921458,0.955459148 Z" id="path-6"></path>
        <filter x="-70.4%" y="-69.6%" width="240.7%" height="239.1%" filterUnits="objectBoundingBox" id="filter-8">
            <feGaussianBlur stdDeviation="6.90848214" in="SourceGraphic"></feGaussianBlur>
        </filter>
        <linearGradient x1="15.4167037%" y1="93.4230328%" x2="63.3014415%" y2="50%" id="linearGradient-9">
            <stop stop-color="#4D73FC" offset="0%"></stop>
            <stop stop-color="#3DAAFD" offset="100%"></stop>
        </linearGradient>
        <path d="M70,212.930241 C75.5730143,189.935024 86.4318291,177.002334 102.576444,174.13217 C126.954116,162.732252 131.414085,149.203517 146.011704,131.83652 C160.609322,114.469524 176.076443,98 211.164592,98 C246.252741,98 285.265927,158.318969 311.944149,169.718887 C338.622371,181.118806 341.217019,195.342635 374.046814,188.23072 C406.876609,181.118806 430.461231,188.569379 437,212.930241 C417.591033,212.930241 295.257699,212.930241 70,212.930241 Z" id="path-10"></path>
        <filter x="-2.7%" y="-8.7%" width="105.4%" height="117.4%" filterUnits="objectBoundingBox" id="filter-11">
            <feGaussianBlur stdDeviation="6" in="SourceAlpha" result="shadowBlurInner1"></feGaussianBlur>
            <feOffset dx="-8" dy="8" in="shadowBlurInner1" result="shadowOffsetInner1"></feOffset>
            <feComposite in="shadowOffsetInner1" in2="SourceAlpha" operator="arithmetic" k2="-1" k3="1" result="shadowInnerInner1"></feComposite>
            <feColorMatrix values="0 0 0 0 0.470588235   0 0 0 0 0.666666667   0 0 0 0 0.988235294  0 0 0 0.5 0" type="matrix" in="shadowInnerInner1"></feColorMatrix>
        </filter>
        <path d="M0,238.769349 C3.72257706,223.409355 10.9758825,214.770774 21.7599162,212.853605 C38.0433414,205.238862 41.022443,196.202144 50.7731378,184.601602 C60.5238325,173.001061 70.8553238,162 94.2929701,162 C117.730617,162 143.790049,202.290944 161.61016,209.905688 C179.430272,217.520431 181.163406,227.021448 203.092551,222.27094 C225.021697,217.520431 240.775392,222.497152 245.143059,238.769349 C232.178553,238.769349 150.4642,238.769349 0,238.769349 Z" id="path-12"></path>
        <filter x="-2.9%" y="-9.1%" width="105.7%" height="118.2%" filterUnits="objectBoundingBox" id="filter-13">
            <feGaussianBlur stdDeviation="5" in="SourceAlpha" result="shadowBlurInner1"></feGaussianBlur>
            <feOffset dx="-4" dy="3" in="shadowBlurInner1" result="shadowOffsetInner1"></feOffset>
            <feComposite in="shadowOffsetInner1" in2="SourceAlpha" operator="arithmetic" k2="-1" k3="1" result="shadowInnerInner1"></feComposite>
            <feColorMatrix values="0 0 0 0 0.411764706   0 0 0 0 0.635294118   0 0 0 0 0.988235294  0 0 0 0.5 0" type="matrix" in="shadowInnerInner1"></feColorMatrix>
        </filter>
        <path d="M114,241.930462 C118.664067,220.335759 127.751832,208.190729 141.263294,205.495372 C161.665018,194.78976 165.397575,182.084987 177.614352,165.775721 C189.831129,149.466454 202.775595,134 232.140939,134 C261.506284,134 294.156499,190.645267 316.483559,201.350878 C338.810618,212.056489 340.982085,225.414021 368.457408,218.735255 C395.932731,212.056489 415.67075,219.053288 421.143059,241.930462 C404.899654,241.930462 302.518635,241.930462 114,241.930462 Z" id="path-14"></path>
        <filter x="-2.9%" y="-8.3%" width="105.9%" height="116.7%" filterUnits="objectBoundingBox" id="filter-15">
            <feGaussianBlur stdDeviation="5" in="SourceAlpha" result="shadowBlurInner1"></feGaussianBlur>
            <feOffset dx="-8" dy="3" in="shadowBlurInner1" result="shadowOffsetInner1"></feOffset>
            <feComposite in="shadowOffsetInner1" in2="SourceAlpha" operator="arithmetic" k2="-1" k3="1" result="shadowInnerInner1"></feComposite>
            <feColorMatrix values="0 0 0 0 0.474509804   0 0 0 0 0.666666667   0 0 0 0 0.992156863  0 0 0 0.8 0" type="matrix" in="shadowInnerInner1"></feColorMatrix>
        </filter>
        <linearGradient x1="41.0694308%" y1="21.3308029%" x2="17.9810692%" y2="-80.9515439%" id="linearGradient-16">
            <stop stop-color="#CFE9FD" stop-opacity="0" offset="0%"></stop>
            <stop stop-color="#CFE9FD" offset="100%"></stop>
        </linearGradient>
        <path d="M11.254213,4.99242012 C7.35144159,58.4092756 3.65179082,113.302738 0.155260751,169.672806 C1.58032002,173.355116 4.16035158,175.196271 7.89535541,175.196271 C11.6303592,175.196271 82.3341499,175.196271 220.006727,175.196271 C225.941222,175.196198 229.309475,172.211716 230.111488,166.242827 C230.913501,160.273938 234.418063,108.148847 240.625172,9.86755275 C241.474335,3.42325248 236.717064,0.20110234 226.35336,0.20110234 C215.989655,0.20110234 147.020603,0.20110234 19.4462024,0.20110234 C14.7554097,0.20110234 12.0247466,1.79820827 11.254213,4.99242012 Z" id="path-17"></path>
        <ellipse id="path-19" cx="109.691871" cy="158.753523" rx="7.87842168" ry="8.55022894"></ellipse>
        <filter x="-3.2%" y="-2.9%" width="106.3%" height="105.8%" filterUnits="objectBoundingBox" id="filter-20">
            <feOffset dx="-1" dy="1" in="SourceAlpha" result="shadowOffsetInner1"></feOffset>
            <feComposite in="shadowOffsetInner1" in2="SourceAlpha" operator="arithmetic" k2="-1" k3="1" result="shadowInnerInner1"></feComposite>
            <feColorMatrix values="0 0 0 0 0.688190499   0 0 0 0 0.850808851   0 0 0 0 1  0 0 0 1 0" type="matrix" in="shadowInnerInner1"></feColorMatrix>
        </filter>
        <linearGradient x1="50%" y1="0%" x2="50%" y2="99.0764993%" id="linearGradient-21">
            <stop stop-color="#CCE6FE" offset="0%"></stop>
            <stop stop-color="#0141A3" offset="100%"></stop>
        </linearGradient>
        <path d="M7.75480354,3.90529882 C6.86032462,13.9275492 4.5840464,50.5176689 0.925968887,113.675658 C-0.427257878,118.471299 1.40178088,120.86912 6.41308516,120.86912 C11.4243894,120.86912 71.3671762,120.86912 186.241445,120.86912 C189.715389,121.667301 191.452361,119.26948 191.452361,113.675658 C191.452361,108.081836 193.824277,71.491716 198.568111,3.90529882 C199.396714,1.76889474 197.024798,0.700692702 191.452361,0.700692702 C185.879924,0.700692702 126.567717,0.700692702 13.5157399,0.700692702 C9.67511566,0.700692702 7.75480354,1.76889474 7.75480354,3.90529882 Z" id="path-22"></path>
        <polygon id="path-24" points="10.2482195 0.750947244 7.87528833 26.4385035 28.6420835 26.4385035 31.0810963 0.750947244"></polygon>
        <filter x="-12.9%" y="-11.7%" width="125.9%" height="123.4%" filterUnits="objectBoundingBox" id="filter-25">
            <feOffset dx="-6" dy="0" in="SourceAlpha" result="shadowOffsetInner1"></feOffset>
            <feComposite in="shadowOffsetInner1" in2="SourceAlpha" operator="arithmetic" k2="-1" k3="1" result="shadowInnerInner1"></feComposite>
            <feColorMatrix values="0 0 0 0 0.0352941176   0 0 0 0 0.384313725   0 0 0 0 0.866666667  0 0 0 1 0" type="matrix" in="shadowInnerInner1"></feColorMatrix>
        </filter>
        <polygon id="path-26" points="40.2887558 0.496679555 38.3303366 26.0873719 58.0612808 26.0873719 60.8864849 0.496679555"></polygon>
        <filter x="-13.3%" y="-11.7%" width="126.6%" height="123.4%" filterUnits="objectBoundingBox" id="filter-27">
            <feOffset dx="-6" dy="0" in="SourceAlpha" result="shadowOffsetInner1"></feOffset>
            <feComposite in="shadowOffsetInner1" in2="SourceAlpha" operator="arithmetic" k2="-1" k3="1" result="shadowInnerInner1"></feComposite>
            <feColorMatrix values="0 0 0 0 0.843137255   0 0 0 0 0.274509804   0 0 0 0 0.274509804  0 0 0 1 0" type="matrix" in="shadowInnerInner1"></feColorMatrix>
        </filter>
        <path d="M25.6133268,0 L31.5835591,23.811728 L5.21196475,23.811728 C1.83828954,24.4994801 0.151451928,26.6095347 0.151451928,30.141892 C2.69365006,30.141892 25.8533694,30.141892 69.6306101,30.141892 C74.8122064,29.2220324 76.8006419,25.8629777 75.5959166,20.0647278 C74.3911913,14.2664778 72.7435114,7.57823526 70.652877,0 L25.6133268,0 Z" id="path-28"></path>
        <linearGradient x1="50%" y1="0%" x2="50%" y2="97.9362355%" id="linearGradient-30">
            <stop stop-color="#FB9332" offset="0%"></stop>
            <stop stop-color="#FE686C" offset="100%"></stop>
        </linearGradient>
        <linearGradient x1="50%" y1="0%" x2="50%" y2="100%" id="linearGradient-31">
            <stop stop-color="#63B3FC" offset="0%"></stop>
            <stop stop-color="#0D8CFF" offset="100%"></stop>
        </linearGradient>
        <path d="M9.66630008,0.067146957 L1.92110688,32.4107601 C0.772943636,36.8679252 0.485902823,40.9303188 1.05998445,44.5979407 C1.63406607,48.2655625 3.79218484,61.809411 7.53434076,85.2294861 L13.3843722,83.1145782 C13.9130827,62.3284078 13.2472401,48.7341647 11.3868445,42.3318489 C12.0093802,39.2437278 16.0312016,30.640631 23.4523087,16.5225587 L21.8337158,40.9818885 C22.9218,44.0766403 24.0715363,46.6783055 25.2829247,48.786884 C26.494313,50.8954625 30.1907317,59.6619168 36.3721807,75.0862469 L42.2573989,72.4378651 C37.8954384,54.0718932 34.550587,44.0365544 32.2228447,42.3318489 C28.7312313,39.7747906 34.9897942,18.4011114 36.3721807,13.514308 C37.2937717,10.256439 36.8306292,5.77405202 34.9827531,0.067146957 L9.66630008,0.067146957 Z" id="path-32"></path>
        <linearGradient x1="50%" y1="5.38807984%" x2="50%" y2="94.1572269%" id="linearGradient-34">
            <stop stop-color="#40A3FD" offset="0%"></stop>
            <stop stop-color="#3156F0" offset="100%"></stop>
        </linearGradient>
        <linearGradient x1="50%" y1="0%" x2="50%" y2="96.6446893%" id="linearGradient-35">
            <stop stop-color="#0565D1" offset="0%"></stop>
            <stop stop-color="#0982F5" offset="100%"></stop>
        </linearGradient>
        <linearGradient x1="28.4080679%" y1="50%" x2="81.9842701%" y2="100%" id="linearGradient-36">
            <stop stop-color="#F79A45" offset="0%"></stop>
            <stop stop-color="#FF5E6D" offset="100%"></stop>
        </linearGradient>
        <linearGradient x1="50%" y1="0%" x2="50%" y2="97.5794798%" id="linearGradient-37">
            <stop stop-color="#0A8AFF" offset="0%"></stop>
            <stop stop-color="#0A8AFF" offset="100%"></stop>
        </linearGradient>
        <linearGradient x1="50%" y1="1.99684837%" x2="50%" y2="95.7315203%" id="linearGradient-38">
            <stop stop-color="#80C1FE" offset="0%"></stop>
            <stop stop-color="#80B2F3" offset="100%"></stop>
        </linearGradient>
        <path d="M0.692787747,2.14182835 C5.20755193,3.89779828 9.23451745,4.77578325 12.7736843,4.77578325 C16.3128512,4.77578325 19.9663425,3.23970974 23.7341583,0.167562728 C25.87974,11.7418194 27.2442945,19.7434994 27.827822,24.1726026 C28.7031131,30.8162574 29.8462524,34.2702968 28.8370372,38.0199551 C28.164227,40.5197274 27.827822,52.596145 27.827822,74.249208 L23.0324246,74.249208 C21.218532,55.322527 19.7478051,44.051356 18.6202438,40.4356951 C17.4926824,36.8200342 15.9660178,32.8431713 14.0402498,28.5051065 C13.9297795,35.9061872 13.507591,40.9671427 12.7736843,43.687973 C11.6728243,47.7692184 8.22290961,59.3762772 8.22290961,62.0410859 C8.22290961,63.817625 7.90749915,67.8869991 7.27667824,74.249208 L0.692787747,71.6083137 C2.15140685,58.4046177 2.8807164,49.505634 2.8807164,44.9113624 C2.8807164,38.0199551 2.99289656,23.3194808 1.60946957,19.5925339 C0.687184908,17.1079026 0.381624301,11.2910007 0.692787747,2.14182835 Z" id="path-39"></path>
        <path d="M7.51349873,0.294462904 C7.0929598,4.28496445 7.0929598,8.4312487 7.51349873,12.7333157 C7.93403767,17.0353826 9.0832016,24.8958081 10.9609905,36.3145922 C8.87481601,41.5519421 7.20338388,46.2914328 5.94669414,50.5330643 C4.6900044,54.7746958 2.81395443,60.8285114 0.318544221,68.694511 L5.63976738,70.3051457 L17.9829183,42.8970715 C20.3212423,35.4453189 21.4904043,29.762624 21.4904043,25.848987 C24.2562231,30.5849572 28.452338,39.1714886 30.4947486,41.9544541 C30.4947486,42.8970715 28.452338,49.920495 28.452338,53.8370658 C28.452338,56.448113 28.452338,64.6588296 28.452338,78.4692155 L33.279696,79.5236092 L40.4894316,42.8970715 C40.991412,37.4525981 40.6578211,33.183976 39.4886591,30.0912053 C37.7349161,25.4520492 32.2337104,3.23849194 32.2337104,0.294462904 C30.3747602,0.294462904 22.1346897,0.294462904 7.51349873,0.294462904 Z" id="path-41"></path>
        <linearGradient x1="64.2670328%" y1="50%" x2="10.3507518%" y2="50%" id="linearGradient-43">
            <stop stop-color="#FFFFFF" stop-opacity="0" offset="0%"></stop>
            <stop stop-color="#FFFFFF" stop-opacity="0.8" offset="100%"></stop>
        </linearGradient>
    </defs>
    <g id="登录，首页" stroke="none" stroke-width="1" fill="none" fill-rule="evenodd">
        <g id="登录页-copy-3" transform="translate(-299.000000, -164.000000)">
            <g id="Group-45" transform="translate(299.000000, 164.000000)">
                <g id="背景图">
                    <mask id="mask-2" fill="white">
                        <use xlink:href="#path-1"></use>
                    </mask>
                    <use id="Mask" fill-opacity="0.01" fill="#FFFFFF" xlink:href="#path-1"></use>
                    <g id="Group-45" mask="url(#mask-2)">
                        <g transform="translate(-84.000000, -1.000000)">
                            <g id="Group-45" stroke-width="1" fill="none" transform="translate(272.000000, 216.500000) scale(-1, 1) translate(-272.000000, -216.500000) ">
                                <g id="bg">
                                    <g id="Path-184-+-Path-184-Copy-3-+-Path-184-Copy-+-Path-184-Copy-2-Mask">
                                        <mask id="mask-4" fill="white">
                                            <use xlink:href="#path-3"></use>
                                        </mask>
                                        <use id="Mask" fill="#4F70FC" opacity="0.291723279" xlink:href="#path-3"></use>
                                        <mask id="mask-7" fill="white">
                                            <use xlink:href="#path-6"></use>
                                        </mask>
                                        <use id="Mask" fill="url(#linearGradient-5)" xlink:href="#path-6"></use>
                                        <g mask="url(#mask-7)">
                                            <g transform="translate(-18.000000, 16.000000)">
                                                <g id="Group-9" stroke-width="1" fill="none" fill-rule="evenodd" transform="translate(222.000000, 0.000000)">
                                                    <path d="M205.252101,31.0125292 C211.472957,40.7298519 230.388506,42.186282 230.388506,37.5968876 C230.388506,33.0074931 215.34806,30.1680282 211.127029,25.1376004 C206.905999,20.1071727 201.362997,6.65323768 201.362997,11.2426321 C201.362997,15.8320265 199.031244,21.2952066 205.252101,31.0125292 Z" id="Combined-Shape" fill="#FFFFFF" filter="url(#filter-8)" transform="translate(215.661723, 25.201499) rotate(-135.000000) translate(-215.661723, -25.201499) "></path>
                                                    <path d="M193.259172,5.70130011 C196.543105,3.76852017 200.370303,2.6599569 204.456421,2.6599569 C216.665982,2.6599569 226.563787,12.5577617 226.563787,24.7673226 C226.563787,34.6403037 220.091833,43.001679 211.158997,45.8403771 C212.559355,42.3289105 213.329425,38.4978031 213.329425,34.4868362 C213.329425,21.2749214 204.974096,10.0144982 193.259172,5.70130011 Z" id="Combined-Shape-Copy" fill="#FFFFFF" transform="translate(209.911479, 24.250167) rotate(-4.000000) translate(-209.911479, -24.250167) "></path>
                                                    <polygon id="Star" fill="#FFFFFF" points="165.855 9.92569367 164.708547 10.5284197 164.9275 9.25182547 164 8.3477364 165.281773 8.16148381 165.855 7 166.428227 8.16148381 167.71 8.3477364 166.7825 9.25182547 167.001453 10.5284197"></polygon>
                                                    <polygon id="Star-Copy-2" fill="#FFFFFF" points="187.855 35.0800803 185.472479 36.3326458 185.9275 33.6796696 184 31.8008215 186.663739 31.4137575 187.855 29 189.046261 31.4137575 191.71 31.8008215 189.7825 33.6796696 190.237521 36.3326458"></polygon>
                                                    <polygon id="Star-Copy-3" fill="#FFFFFF" points="148.85317 77.5 147.089814 78.427051 147.426585 76.4635255 146 75.072949 147.971492 74.7864745 148.85317 73 149.734847 74.7864745 151.706339 75.072949 150.279754 76.4635255 150.616525 78.427051"></polygon>
                                                    <polygon id="Star-Copy-5" fill="#FFFFFF" points="235.85317 60.5 234.089814 61.427051 234.426585 59.4635255 233 58.072949 234.971492 57.7864745 235.85317 56 236.734847 57.7864745 238.706339 58.072949 237.279754 59.4635255 237.616525 61.427051"></polygon>
                                                    <polygon id="Star-Copy-6" fill="#FFFFFF" points="122.85317 4.5 121.089814 5.42705098 121.426585 3.46352549 120 2.07294902 121.971492 1.78647451 122.85317 0 123.734847 1.78647451 125.706339 2.07294902 124.279754 3.46352549 124.616525 5.42705098"></polygon>
                                                    <polygon id="Star-Copy-7" fill="#FFFFFF" opacity="0.653249547" points="61.355 16.137097 60.517564 16.5773632 60.6775 15.6448644 60 14.9844651 60.936282 14.8484154 61.355 14 61.7737181 14.8484154 62.71 14.9844651 62.0325 15.6448644 62.1924361 16.5773632"></polygon>
                                                    <polygon id="Star-Copy-8" fill="#FFFFFF" points="2.85316955 26.5 1.08981379 27.427051 1.42658477 25.4635255 2.83661983e-14 24.072949 1.97149167 23.7864745 2.85316955 22 3.73484743 23.7864745 5.7063391 24.072949 4.27975432 25.4635255 4.61652531 27.427051"></polygon>
                                                </g>
                                                <g id="Path-184" fill="none" opacity="0.480978261">
                                                    <use fill-opacity="0.970000029" fill="url(#linearGradient-9)" fill-rule="evenodd" xlink:href="#path-10"></use>
                                                    <use fill="black" fill-opacity="1" filter="url(#filter-11)" xlink:href="#path-10"></use>
                                                </g>
                                                <g id="Path-184-Copy-3" fill="none" opacity="0.806499094">
                                                    <use fill="url(#linearGradient-9)" fill-rule="evenodd" xlink:href="#path-12"></use>
                                                    <use fill="black" fill-opacity="1" filter="url(#filter-13)" xlink:href="#path-12"></use>
                                                </g>
                                                <g id="Path-184-Copy" fill="none" opacity="0.706351902">
                                                    <use fill="url(#linearGradient-9)" fill-rule="evenodd" xlink:href="#path-14"></use>
                                                    <use fill="black" fill-opacity="1" filter="url(#filter-15)" xlink:href="#path-14"></use>
                                                </g>
                                                <path d="M26,267 C35.3237896,228.584683 53.4908531,206.979607 80.5011903,202.184773 C121.285633,183.140314 128.74727,160.539498 153.169444,131.526566 C177.591619,102.513633 210.277111,72.9205985 262.171825,75 C314.066538,77.0794015 386.145174,175.767578 430.778494,194.812037 C475.411814,213.856497 479.752724,237.618521 534.677776,225.737509 C589.602829,213.856497 629.060479,226.303265 640,267 C607.528321,267 402.861655,267 26,267 Z" id="Path-184-Copy-2" fill="url(#linearGradient-9)" fill-rule="evenodd" transform="translate(333.000000, 170.948220) scale(-1, 1) translate(-333.000000, -170.948220) "></path>
                                                <path d="M26,267 C35.3237896,228.584683 53.4908531,206.979607 80.5011903,202.184773 C121.285633,183.140314 128.74727,160.539498 153.169444,131.526566 C177.591619,102.513633 209.491055,72.4200607 262.171825,75 C314.852594,77.5799393 386.145174,175.767578 430.778494,194.812037 C475.411814,213.856497 479.752724,237.618521 534.677776,225.737509 C589.602829,213.856497 629.060479,226.303265 640,267 C607.528321,267 402.861655,267 26,267 Z" id="Path-184-Copy-4" fill="url(#linearGradient-16)" fill-rule="evenodd" transform="translate(333.000000, 170.922535) scale(-1, 1) translate(-333.000000, -170.922535) "></path>
                                                <rect id="Rectangle-3" fill="#4E70FC" fill-rule="evenodd" x="62" y="262.070436" width="430" height="135.929564"></rect>
                                            </g>
                                        </g>
                                    </g>
                                </g>
                                <g id="Group-6" transform="translate(77.000000, 126.000000)">
                                    <g id="电脑" transform="translate(129.000000, 17.335029)">
                                        <g id="Path-171" transform="translate(0.000000, 1.069987)">
                                            <mask id="mask-18" fill="white">
                                                <use xlink:href="#path-17"></use>
                                            </mask>
                                            <use id="Mask" fill="#2E9BFF" xlink:href="#path-17"></use>
                                            <polygon fill="#0A8AFF" mask="url(#mask-18)" points="58.1791139 0.245432983 88.7474906 174.0823 231.903736 174.0823 242.371579 0.245432983"></polygon>
                                            <g id="Oval-18" mask="url(#mask-18)">
                                                <use fill="#FFFFFF" fill-rule="evenodd" xlink:href="#path-19"></use>
                                                <use fill="black" fill-opacity="1" filter="url(#filter-20)" xlink:href="#path-19"></use>
                                            </g>
                                        </g>
                                        <path d="M228.846641,0.135849955 C232.185232,2.02122581 233.475171,6.93087874 232.716456,14.8648087 C231.957741,22.7987387 228.828854,72.8696702 223.329797,165.077603 C223.140521,170.315719 221.404602,173.680245 218.122041,175.171181 C219.679441,175.171181 230.298507,176.622911 231.507481,165.077603 C232.716456,153.532295 240.590622,32.9504066 241.751396,10.078529 C241.751396,3.45007631 237.449811,0.135849955 228.846641,0.135849955 Z" id="Path-163" fill="url(#linearGradient-21)"></path>
                                        <path d="M16.5559069,10.3474599 C15.5775005,21.870227 13.0876427,63.9385664 9.08633373,136.552478 C7.60613589,142.066116 9.6067904,144.822934 15.0882972,144.822934 C20.5698041,144.822934 86.1369256,144.822934 211.789662,144.822934 C215.58956,145.740618 217.489509,142.983799 217.489509,136.552478 C217.489509,130.121157 220.083978,88.0528175 225.272918,10.3474599 C226.179268,7.89119645 223.584798,6.66306475 217.489509,6.66306475 C211.394219,6.66306475 146.516843,6.66306475 22.8573826,6.66306475 C18.6563988,6.66306475 16.5559069,7.89119645 16.5559069,10.3474599 Z" id="Path-164" fill="#FFFFFF"></path>
                                        <g id="Path-164-Copy-2" transform="translate(18.180973, 14.469618)">
                                            <mask id="mask-23" fill="white">
                                                <use xlink:href="#path-22"></use>
                                            </mask>
                                            <use id="Mask" fill="#E6F3FF" xlink:href="#path-22"></use>
                                            <path d="M7.10315669,1.12105262 C5.97164888,2.5453409 5.40589497,6.0218564 5.40589497,11.5505991 C5.54444081,12.0409071 7.34363915,12.2860611 10.80349,12.2860611 C14.2633408,12.2860611 75.3751698,12.2860611 194.138977,12.2860611 C197.680671,12.3676674 199.451519,12.1225134 199.451519,11.5505991 C199.451519,10.6927277 200.683231,2.32564268 200.536141,2.05066171 C200.389052,1.77568074 197.867426,0 193.273002,0 C190.210053,2.36456667e-17 129.741102,2.36456667e-17 11.8661485,0 C9.21419934,0 7.6265354,0.373684206 7.10315669,1.12105262 Z" fill="#FC922A" mask="url(#mask-23)"></path>
                                        </g>
                                        <g id="Group-41" transform="translate(30.301622, 69.349466)">
                                            <path d="M2.50785827,53.7701715 C38.6720041,54.8934806 76.9775879,54.8934806 117.42461,53.7701715 C120.367257,53.3995707 121.838581,51.7902023 121.838581,48.9420663 C121.838581,46.0939304 122.808573,30.7794499 124.748556,2.998625 C125.083998,1.04715085 123.767297,0.0714137817 120.798453,0.0714137817 C117.82961,0.0714137817 80.2982698,0.0714137817 8.20443341,0.0714137817 C5.59241443,-0.214354212 4.02465529,1.54335249 3.50115598,5.34453388 C2.97765667,9.14571527 2.11418117,24.081233 0.910729483,50.1510869 C0.910729483,52.25702 1.44310574,53.4633815 2.50785827,53.7701715 Z" id="Path-187" fill="#FFFFFF"></path>
                                            <rect id="Rectangle-74" fill="#9DD0FF" x="94.5410601" y="42.4612201" width="20.6051028" height="5.26167935" rx="2.63083968"></rect>
                                            <rect id="Rectangle-74-Copy" fill="#9DD0FF" x="95.753125" y="30.6224416" width="20.6051028" height="5.26167935" rx="2.63083968"></rect>
                                            <rect id="Rectangle-74-Copy-2" fill="#9DD0FF" x="95.753125" y="18.783663" width="20.6051028" height="5.26167935" rx="2.63083968"></rect>
                                            <rect id="Rectangle-74-Copy-3" fill="#9DD0FF" x="96.9651899" y="6.94488451" width="20.6051028" height="5.26167935" rx="2.63083968"></rect>
                                            <rect id="Rectangle-74-Copy-4" fill="#CEE8FF" x="12.1206487" y="6.94488451" width="77.5721519" height="5.26167935" rx="2.63083968"></rect>
                                            <rect id="Rectangle-74-Copy-5" fill="#CEE8FF" x="10.9085839" y="18.783663" width="77.5721519" height="5.26167935" rx="2.63083968"></rect>
                                            <rect id="Rectangle-74-Copy-6" fill="#CEE8FF" x="9.69651899" y="30.6224416" width="77.5721519" height="5.26167935" rx="2.63083968"></rect>
                                            <rect id="Rectangle-74-Copy-7" fill="#CEE8FF" x="9.69651899" y="42.4612201" width="77.5721519" height="5.26167935" rx="2.63083968"></rect>
                                        </g>
                                        <g id="Group-40" transform="translate(32.725752, 39.217162)">
                                            <path d="M1.64380065,1.17062342 L0.508780003,17.0439851 C0.388152322,17.6976164 1.13304589,18.0244321 2.74346072,18.0244321 C12.6045471,18.0244321 22.4656335,18.0244321 32.32672,18.0244321 L32.32672,18.0244321 C32.8523985,18.0244321 33.2883305,17.617427 33.3243674,17.0929852 L34.3686058,1.89627221 C34.3193732,0.79338811 33.949959,0.241946062 33.2603633,0.241946062 C23.0539935,0.241946062 12.8476237,0.241946062 2.64125395,0.241946062 L2.64125395,0.241946062 C2.11664445,0.241946062 1.68121719,0.64734995 1.64380065,1.17062342 Z" id="Path-165" fill="#FFFFFF"></path>
                                            <polygon id="Path-166" fill="#FE6363" points="10.8884888 7.2077564 10.3334813 15.0668392 14.8086025 15.0668392 15.4185326 7.2077564"></polygon>
                                            <polygon id="Path-167" fill="#0E8CFF" points="20.1075833 9.81084248 20.1075833 14.4415371 24.0312586 14.4415371 24.0312586 9.81084248"></polygon>
                                        </g>
                                        <g id="Group-40-Copy" transform="translate(78.784217, 39.217162)">
                                            <path d="M1.64380065,1.17062342 L0.508780003,17.0439851 C0.388152322,17.6976164 1.13304589,18.0244321 2.74346072,18.0244321 C12.6045471,18.0244321 22.4656335,18.0244321 32.32672,18.0244321 L32.32672,18.0244321 C32.8523985,18.0244321 33.2883305,17.617427 33.3243674,17.0929852 L34.3686058,1.89627221 C34.3193732,0.79338811 33.949959,0.241946062 33.2603633,0.241946062 C23.0539935,0.241946062 12.8476237,0.241946062 2.64125395,0.241946062 L2.64125395,0.241946062 C2.11664445,0.241946062 1.68121719,0.64734995 1.64380065,1.17062342 Z" id="Path-165" fill="#FFFFFF"></path>
                                            <polygon id="Path-166" fill="#FE6363" points="10.8884888 7.2077564 10.3334813 15.0668392 14.8086025 15.0668392 15.4185326 7.2077564"></polygon>
                                            <polygon id="Path-167" fill="#0E8CFF" points="20.1075833 9.81084248 20.1075833 14.4415371 24.0312586 14.4415371 24.0312586 9.81084248"></polygon>
                                        </g>
                                        <g id="Group-40-Copy-2" transform="translate(124.842682, 39.217162)">
                                            <path d="M1.64380065,1.17062342 L0.508780003,17.0439851 C0.388152322,17.6976164 1.13304589,18.0244321 2.74346072,18.0244321 C12.6045471,18.0244321 22.4656335,18.0244321 32.32672,18.0244321 L32.32672,18.0244321 C32.8523985,18.0244321 33.2883305,17.617427 33.3243674,17.0929852 L34.3686058,1.89627221 C34.3193732,0.79338811 33.949959,0.241946062 33.2603633,0.241946062 C23.0539935,0.241946062 12.8476237,0.241946062 2.64125395,0.241946062 L2.64125395,0.241946062 C2.11664445,0.241946062 1.68121719,0.64734995 1.64380065,1.17062342 Z" id="Path-165" fill="#FFFFFF"></path>
                                            <polygon id="Path-166" fill="#FE6363" points="10.8884888 7.2077564 10.3334813 15.0668392 14.8086025 15.0668392 15.4185326 7.2077564"></polygon>
                                            <polygon id="Path-167" fill="#0E8CFF" points="20.1075833 9.81084248 20.1075833 14.4415371 24.0312586 14.4415371 24.0312586 9.81084248"></polygon>
                                        </g>
                                        <g id="Group-40-Copy-3" transform="translate(166.052888, 39.217162)">
                                            <path d="M6.48812278,1.16604594 L0.508780003,79.7178952 C0.388152322,82.8608335 1.13304589,84.4323026 2.74346072,84.4323026 C12.6074566,84.4323026 22.4714525,84.4323026 32.3354483,84.4323026 L32.3354483,84.4323026 C32.8575223,84.4323026 33.2917427,84.0306856 33.3324099,83.5101979 L39.2168652,8.19665166 C39.5962925,2.8935146 38.7869416,0.241946062 36.7888125,0.241946062 C27.0209544,0.241946062 17.2530963,0.241946062 7.48523821,0.241946062 L7.48523821,0.241946062 C6.96239475,0.241946062 6.52780666,0.644710663 6.48812278,1.16604594 Z" id="Path-165" fill="#FFFFFF"></path>
                                            <rect id="Rectangle-74" fill="#FFC1C1" x="8.48445411" y="72.593524" width="20.6051028" height="5.26167935" rx="2.63083968"></rect>
                                            <rect id="Rectangle-74-Copy" fill="#FFC1C1" x="9.69651899" y="60.4258905" width="20.6051028" height="5.26167935" rx="2.63083968"></rect>
                                            <rect id="Rectangle-74-Copy-2" fill="#FFC1C1" x="9.69651899" y="48.2582571" width="20.6051028" height="5.26167935" rx="2.63083968"></rect>
                                            <rect id="Rectangle-74-Copy-3" fill="#FFC1C1" x="10.9085839" y="36.0906236" width="20.6051028" height="5.26167935" rx="2.63083968"></rect>
                                            <rect id="Rectangle-74-Copy-9" fill="#FED4AC" x="10.9085839" y="23.9229901" width="20.6051028" height="5.26167935" rx="2.63083968"></rect>
                                            <polygon id="Path-166" fill="#FE6363" points="15.7367483 7.2077564 15.1817408 15.0668392 19.656862 15.0668392 20.2667921 7.2077564"></polygon>
                                            <polygon id="Path-167" fill="#0E8CFF" points="24.9558427 9.81084248 24.9558427 14.4415371 28.8795181 14.4415371 28.8795181 9.81084248"></polygon>
                                        </g>
                                        <g id="Group-39" transform="translate(14.544778, 70.787238)">
                                            <path d="M2.12421072,4.92052847 C1.4888944,12.9579068 0.867254322,22.8707492 0.259290492,34.6590556 C-0.0846530382,38.6470819 1.68481745,40.641095 5.56770196,40.641095 C9.45058647,40.641095 31.2690986,40.641095 71.0232383,40.641095 C74.4264406,40.722675 76.1280417,38.7286618 76.1280417,34.6590556 C76.1280417,30.5894494 76.5322835,21.4765599 77.3407671,7.32038711 C76.9227351,2.56227241 74.8168922,0.183215065 71.0232383,0.183215065 C67.2295844,0.183215065 45.9467937,0.183215065 7.17486605,0.183215065 C4.13340112,0.183215065 2.44984934,1.76231953 2.12421072,4.92052847 Z" id="Path-168" fill="#0A8AFF" opacity="0.515908062"></path>
                                            <g id="Path-169">
                                                <use fill="#0A8AFF" fill-rule="evenodd" xlink:href="#path-24"></use>
                                                <use fill="black" fill-opacity="1" filter="url(#filter-25)" xlink:href="#path-24"></use>
                                            </g>
                                            <g id="Path-170">
                                                <use fill="#FE6363" fill-rule="evenodd" xlink:href="#path-26"></use>
                                                <use fill="black" fill-opacity="1" filter="url(#filter-27)" xlink:href="#path-26"></use>
                                            </g>
                                        </g>
                                        <g id="Rectangle-77" transform="translate(74.924023, 174.950838)">
                                            <mask id="mask-29" fill="white">
                                                <use xlink:href="#path-28"></use>
                                            </mask>
                                            <use id="Mask" fill="#0760D9" xlink:href="#path-28"></use>
                                            <rect fill="#0989FF" mask="url(#mask-29)" x="-0.988066003" y="23.6775571" width="47.2705301" height="6.57709919"></rect>
                                        </g>
                                        <g id="Group-46" transform="translate(113.710099, 70.672758)">
                                            <path d="M17.1793744,3.8875067 C17.1793744,12.201185 17.5675411,20.6635998 18.3438746,29.274751 C18.561762,31.8638435 20.798759,33.1583898 25.0548655,33.1583898 C29.310972,33.1583898 35.3239053,33.1583898 43.0936654,33.1583898 C46.4297379,32.9409415 47.7323893,30.9886618 47.0016194,27.3015506 C46.2708495,23.6144393 45.6046281,15.809758 45.0029551,3.8875067 C44.5064288,1.7713483 43.3950861,0.713269098 41.6689271,0.713269098 C39.942768,0.713269098 32.6520097,0.713269098 19.7966521,0.713269098 C18.1211956,1.46512231 17.2487697,2.52320151 17.1793744,3.8875067 Z" id="Path-186" fill="url(#linearGradient-30)"></path>
                                            <path d="M25.4186039,104.27808 C29.5967337,118.96619 31.2797669,126.683515 30.4677035,127.430056 C29.6556401,128.176597 21.5499484,128.176597 6.15062865,127.430056 C2.05578844,127.761106 0.00836834113,130.043799 0.00836834113,134.278133 C6.30804323,134.278111 16.461155,134.2781 30.4677035,134.2781 C35.4974631,133.684643 37.7377047,130.864775 37.1884283,125.818495 C36.6391518,120.772215 34.7952607,113.592077 31.6567549,104.27808 L25.4186039,104.27808 Z" id="Path-172" fill="#0040A3"></path>
                                        </g>
                                    </g>
                                    <g id="Group-42" transform="translate(256.000000, 99.000000)">
                                        <g id="Path-159" transform="translate(30.303816, 76.917673)">
                                            <mask id="mask-33" fill="white">
                                                <use xlink:href="#path-32"></use>
                                            </mask>
                                            <use id="Mask" fill="url(#linearGradient-31)" xlink:href="#path-32"></use>
                                            <path d="M23.263576,16.8571606 C25.8959503,13.5152139 27.4863719,9.82440796 28.0348408,5.78474279 C29.2459919,11.9658459 24.4048972,21.625164 22.7516382,22.5579318 C22.7516382,22.0273666 22.9222841,20.1271095 23.263576,16.8571606 Z" fill="#0144C6" mask="url(#mask-33)"></path>
                                        </g>
                                        <path d="M62.3548275,151.410359 C60.0887738,153.518231 58.9557469,155.424072 58.9557469,157.127879 C58.9557469,158.831687 64.7101223,160.809377 76.218873,163.06095 L76.7933602,160.916287 C76.5115033,159.101854 75.5302958,157.839052 73.8497376,157.127879 C71.3289003,156.061121 68.9254569,155.323016 67.8745536,152.968154 C67.1739513,151.398246 65.3340426,150.878981 62.3548275,151.410359 Z" id="Path-160" fill="#0144C6" transform="translate(67.874554, 157.134872) scale(-1, 1) translate(-67.874554, -157.134872) "></path>
                                        <path d="M32.4064605,165.094851 C31.2844701,166.245081 31.5938605,167.27799 33.3346318,168.19358 C35.0754032,169.109169 38.9430718,171.427615 44.9376378,175.148918 C47.0041798,175.973375 47.8000291,175.233285 47.3251858,172.928651 C46.8503425,170.624017 44.4888584,168.233364 40.2407335,165.756692 C40.9401258,164.691285 41.3715291,163.658743 41.5349436,162.659066 C40.246689,161.417318 38.5462407,160.796444 36.4335987,160.796444 L32.4064605,165.094851 Z" id="Path-161" fill="#0144C6" transform="translate(39.602562, 168.135603) scale(-1, 1) translate(-39.602562, -168.135603) "></path>
                                        <path d="M38.7917792,28.586174 C41.8682694,31.6079004 41.3540462,36.01571 37.2491096,41.8096028 C35.155472,44.7904694 34.9432304,50.5893694 39.5645816,56.5408878 C42.6454824,60.5085668 42.6454824,67.488357 39.5645816,77.4802585 C49.2197762,82.7393859 57.753008,82.7393859 65.1642772,77.4802585 C65.1642772,74.7715815 62.567615,67.6820342 62.567615,62.111461 C62.567615,58.3977455 63.7628103,48.408342 66.153201,32.1432505 C65.963257,29.4356591 64.1739596,28.0818633 60.7853089,28.0818633 C57.3966581,28.0818633 50.0654816,28.2499669 38.7917792,28.586174 Z" id="Path-183" fill="url(#linearGradient-34)"></path>
                                        <path d="M37.4899121,41.7467621 L26.0582108,45.9999675 C21.851597,48.2079203 18.7944037,48.2079203 16.8866311,45.9999675 C14.9788584,43.7920148 9.56474453,37.0680975 0.644289414,25.8282157 C1.73725896,23.4098626 3.34703446,22.200686 5.4736159,22.200686 C6.61876268,23.6621892 11.6868544,29.0400732 20.677891,38.3343377 C21.1128735,39.6379314 22.6129627,39.3172127 25.1781586,37.3721815 C27.7433544,35.4271502 32.5157755,32.5441583 39.4954218,28.7232055 C40.8425996,30.5850337 41.2077182,33.0113328 40.5907776,36.002103 C39.973837,38.9928732 38.9402152,40.9077596 37.4899121,41.7467621 Z" id="Path-185" fill="url(#linearGradient-35)"></path>
                                        <path d="M50.6627814,0.068240279 L40.1960646,0.068240279 C38.3422142,1.30838778 37.4152891,2.85636449 37.4152891,4.71217042 C37.4152891,7.49587932 42.7150732,9.97588579 42.7150732,12.4524411 C42.7150732,14.9289964 42.6893439,33.2767648 44.0390352,35.7961145 C45.3887265,38.3154642 54.1755552,45.7720492 65.9976208,43.2147367 C77.8196865,40.6574241 71.4199991,29.3132062 67.2531772,25.6089686 C63.0863554,21.9047309 60.1502956,19.4168901 59.0118234,10.5418767 C58.252842,4.62520109 55.469828,1.13398896 50.6627814,0.068240279 Z" id="Path-182" fill="#3C485A"></path>
                                    </g>
                                    <g id="Group-38" transform="translate(0.514213, 196.025526)">
                                        <path d="M158.852347,67.5169358 C158.82453,64.9579163 157.857568,62.8344993 155.951462,61.1466848 C153.092304,58.6149631 147.722581,57.5982668 145.705783,54.7651082 C143.688985,51.9319495 139.080777,42.691078 132.647888,42.691078 C126.214999,42.691078 116.588268,53.4408766 113.310972,54.7651082 C110.033676,56.0893398 102.814932,54.6840861 98.3910165,56.9858097 C95.4417398,58.5202921 92.4304524,62.0306675 89.3571543,67.5169358 L158.852347,67.5169358 Z" id="Path-145" fill="url(#linearGradient-36)"></path>
                                        <g id="Group-37">
                                            <path d="M0.409797232,67.4792497 C3.98166811,60.9538968 7.66040397,56.5273998 11.4460048,54.1997586 C15.2316056,51.8721175 20.4640193,49.8153713 27.1432458,48.0295202 C30.5338102,41.3854642 34.050098,37.2769455 37.6921094,35.7039641 C43.1551264,33.3444919 55.3160599,31.5074108 67.3521494,43.791034 C69.7422194,47.2138601 74.8923001,51.969775 82.0575227,54.1997586 C89.2227452,56.4297423 98.3616852,55.4702568 103.095181,57.6519533 C107.828677,59.8336498 112.213802,65.011659 113.295336,67.4792497 C111.933932,67.4792497 74.3054195,67.4792497 0.409797232,67.4792497 Z" id="Path-120" fill="#1AB5FE"></path>
                                            <g id="Group-36" transform="translate(6.554362, 40.506706)" fill="#0040A3">
                                                <polygon id="Path-173" points="6.24110564 0.858559664 9.07516778 11.8002248 10.2625311 10.9346882"></polygon>
                                                <path d="M10.3591578,9.43590338 C11.4872333,8.23363251 12.4958345,7.63249708 13.3849615,7.63249708 C14.718652,7.63249708 17.9207724,6.16139436 16.63024,5.35437136 C15.3397076,4.54734836 13.1160129,4.10744171 11.7375853,6.16139436 C10.8186336,7.53069614 10.3591578,8.62219914 10.3591578,9.43590338 Z" id="Path-174"></path>
                                                <path d="M7.63620406,9.21530296 C6.05238715,9.44201844 4.63679678,9.29139959 3.38943295,8.76344642 C1.51838721,7.97151666 1.7398964,7.97151666 0.502743996,7.97151666 C0.502743996,7.09929183 1.66370353,4.54677469 4.06947403,5.33043878 C6.47524453,6.11410287 6.61584788,7.25019975 7.63620406,7.25019975 C8.31644151,7.25019975 8.31644151,7.90523415 7.63620406,9.21530296 Z" id="Path-175"></path>
                                            </g>
                                            <g id="Group-35" transform="translate(58.989258, 0.000000)">
                                                <path d="M8.82766411,6.4448982 C6.37806457,17.2054727 5.94349563,29.2975999 7.5239573,42.72128" id="Path-176" fill="#0040A3"></path>
                                                <path d="M6.03150931,18.9114679 C5.15502349,17.2458249 4.17515226,16.4130034 3.09189562,16.4130034 C1.46701066,16.4130034 0.392260418,16.888351 0.392260418,17.6622357 C0.392260418,18.4361203 1.76686107,19.2299238 3.21188486,19.2299238 C4.17523406,19.2299238 5.11510887,19.1237718 6.03150931,18.9114679 Z" id="Path-177" fill="#0040A3"></path>
                                                <path d="M7.23728487,19.9794006 C7.566817,19.9794006 11.1962846,18.8327716 11.1962846,17.5951983 C11.1962846,16.3576251 10.3991783,16.1221721 9.80798155,16.3576251 C9.21678476,16.5930781 6.90775274,19.9794006 7.23728487,19.9794006 Z" id="Path-178" fill="#0040A3"></path>
                                                <path d="M8.77116837,44.2098572 C9.1007005,44.2098572 12.7301681,43.0632282 12.7301681,41.825655 C12.7301681,40.5880817 11.9330618,40.3526288 11.341865,40.5880817 C10.7506683,40.8235347 8.44163624,44.2098572 8.77116837,44.2098572 Z" id="Path-178-Copy" fill="#0040A3"></path>
                                                <path d="M7.82172745,1.98110644 C6.61846535,0.935218181 5.79289874,0.935218181 5.34502759,1.98110644 C4.67322088,3.54993882 8.33789455,6.09533545 8.78526444,6.09533545 C9.23263433,6.09533545 12.6950517,4.8335632 12.6950517,3.64601285 C12.6950517,2.85431261 12.2538222,2.45846249 11.3713631,2.45846249 C11.2287562,1.04761852 10.762088,0.342196526 9.97135856,0.342196526 C9.18062915,0.342196526 8.46408544,0.88849983 7.82172745,1.98110644 Z" id="Path-179" fill="#FE6666"></path>
                                            </g>
                                            <path d="M25.7227651,60.8181547 L31.2140234,60.8181547 C30.1448441,58.7544107 29.0325853,57.7225387 27.877247,57.7225387 C26.7219086,57.7225387 26.003748,58.7544107 25.7227651,60.8181547 Z" id="Path-180" fill="#0040A3"></path>
                                            <path d="M44.1006234,67.3819411 C42.5541369,66.2625089 41.1705022,65.5319949 39.9497191,65.1903993 C38.1185444,64.6780059 37.2023962,63.2520259 39.3390858,62.5940304 C40.7635455,62.1553667 42.3507246,63.2873968 44.1006234,65.9901207 C44.3241516,64.1585868 43.5401107,62.5779601 41.7485007,61.2482406 C39.0610857,59.2536614 38.1724522,58.1142826 39.0610857,56.7030809 C39.9497191,55.2918791 44.2345469,58.4534555 45.7606466,61.2482406 C46.7780465,63.1114307 47.2867464,64.9964247 47.2867464,66.9032227 L48.2793277,66.9032227 C47.8701437,64.6994934 48.2020517,63.021336 49.2750516,61.8687503 C50.3480514,60.7161647 51.4493348,59.912626 52.5789016,59.4581343 C53.7086296,59.7543453 53.6169298,60.3510474 52.3038024,61.2482406 C50.9906749,62.1454338 50.2442647,63.3551507 50.0645719,64.8773911 C51.1190384,64.0588538 52.4243496,63.6495851 53.9805056,63.6495851 C56.3147396,63.6495851 56.6686459,66.8477437 56.6686459,67.3819411 C56.1848451,67.3819411 51.9955043,67.3819411 44.1006234,67.3819411 Z" id="Path-181" fill="#0040A3"></path>
                                            <path d="M72.6058896,53.4535563 L76.5697043,53.4535563 C76.5697043,55.373284 75.9090685,56.3331479 74.5877969,56.3331479 C73.2665254,56.3331479 72.6058896,55.373284 72.6058896,53.4535563 Z" id="Path-188" fill="#0040A3"></path>
                                            <path d="M84.3888674,58.8854641 C84.0362648,59.6942104 85.121751,61.9879102 85.914005,62.4018081 C86.4421743,62.67774 86.8883715,61.6543208 87.2525964,59.3315505 C86.2752044,58.1742837 85.3206281,58.0255883 84.3888674,58.8854641 Z" id="Path-189" fill="#0040A3"></path>
                                            <path d="M95.1069808,55.7350016 C95.7478437,54.8344109 96.3475239,54.0580491 96.9060215,53.4059162 C97.7437678,52.4277168 95.5482239,50.6774062 94.1198275,51.8670415 C93.1675632,52.6601317 93.4966143,53.9494517 95.1069808,55.7350016 Z" id="Path-190" fill="#0040A3"></path>
                                        </g>
                                    </g>
                                    <g id="Group-44" transform="translate(280.000655, 209.025526)">
                                        <path d="M0.301486642,71.5981789 C3.90032267,66.2618574 8.18150074,62.4280837 13.1450208,60.096858 C20.590301,56.6000193 31.9260382,59.1492283 37.5960364,56.0724201 C43.2660347,52.9956119 57.5005668,34.5903844 75.1298657,34.5903844 C86.8827317,34.5903844 101.209958,46.9263159 118.111545,71.5981789 L0.301486642,71.5981789 Z" id="Path-149" fill="url(#linearGradient-37)"></path>
                                        <path d="M13.5372197,71.4122419 C16.2311395,66.2967753 19.4372526,62.8837765 23.1555591,61.1732458 C28.7330189,58.6074497 41.0405349,59.7773158 43.8310316,57.6500719 C46.6215284,55.522828 55.7817063,43.9457981 64.9128872,43.9457981 C74.044068,43.9457981 79.0649936,59.4531541 86.1375362,60.3822002 C90.8525646,61.0015642 95.3230822,64.6782448 99.5490889,71.4122419 L13.5372197,71.4122419 Z" id="Path-148" fill="url(#linearGradient-36)"></path>
                                        <g id="Group-43" transform="translate(18.173861, 0.000000)">
                                            <path d="M1.83684132,58.4381943 C0.65621169,57.3003144 0.0658968747,56.3032704 0.0658968747,55.4470621 C0.0658968747,54.1627497 1.86842609,52.9301841 3.26859278,54.6364534 C4.20203723,55.7739663 3.72478675,57.0412133 1.83684132,58.4381943 Z" id="Path-191" fill="#0040A3"></path>
                                            <path d="M33.1298545,3.19168261 C34.8572967,13.7890903 35.4639368,22.4193244 34.9497748,29.0823848 C34.4356128,35.7454453 34.3431347,40.6209179 34.6723405,43.7088027 L35.9617586,42.198903 C35.9617586,32.1601437 35.9617586,25.9105903 35.9617586,23.4502427 C35.9617586,20.989895 35.0177906,14.2370417 33.1298545,3.19168261 Z" id="Path-192" fill="#0040A3"></path>
                                            <path d="M28.9492762,4.08634041 C30.9737758,6.1641418 32.6632521,7.03892201 34.017705,6.71068103 C36.0493845,6.21831955 37.9207848,3.19209007 37.9207848,2.65465102 C37.9207848,2.11721196 35.2568584,2.11721196 34.6372817,2.11721196 C34.017705,2.11721196 33.6542264,0 32.6366445,0 C31.6190626,0 31.3371744,1.42117474 31.0762681,2.360365 C29.6582735,2.55655568 28.9492762,3.13188081 28.9492762,4.08634041 Z" id="Path-193" fill="#FE6666"></path>
                                            <path d="M36.0142471,18.1641829 C36.5746785,18.1641829 40.8886565,18.4023765 42.1652137,16.3815286 C43.4417709,14.3606807 40.0933055,13.5922476 39.0897304,14.7915004 C38.0861553,15.9907531 35.4538158,18.1641829 36.0142471,18.1641829 Z" id="Path-194" fill="#0040A3"></path>
                                            <path d="M33.8565692,18.0875467 C30.9955104,17.2855134 29.5649809,16.1956916 29.5649809,14.8180814 C29.5649809,12.7516661 32.5269657,13.6540399 32.5269657,14.2360606 C32.5269657,14.6240745 32.9701668,15.9079032 33.8565692,18.0875467 Z" id="Path-195" fill="#0040A3"></path>
                                            <path d="M31.3538583,45.4999966 C30.9140626,44.731703 29.9782887,43.9576578 28.5465364,43.1778611 C26.398908,42.0081659 29.1307155,40.0574631 29.9501973,40.7449314 C30.4965186,41.2032437 30.9644056,42.7882654 31.3538583,45.4999966 Z" id="Path-196" fill="#0040A3"></path>
                                            <path d="M50.1617412,35.5756964 C50.752911,32.9623897 51.5488926,31.6557364 52.5496858,31.6557364 C53.5504791,31.6557364 54.0508757,32.7303178 54.0508757,34.8794806 L50.1617412,35.5756964 Z" id="Path-197" fill="#0040A3"></path>
                                        </g>
                                    </g>
                                    <g id="语言" transform="translate(31.000000, 0.000000)">
                                        <path d="M6.03687235,23.7432607 C6.37215387,20.9627585 8.55087853,19.5725074 12.5730463,19.5725074 C16.5952142,19.5725074 37.6380632,19.5725074 75.7015935,19.5725074 C78.3027487,20.2307999 79.6033263,22.477615 79.6033263,26.3129525 C79.6033263,29.6480987 78.6198615,36.4726965 76.6529319,46.7867461 L76.6529376,46.7867472 C76.1133764,49.6160611 73.6394501,51.6627841 70.7591474,51.6627841 L12.4325672,51.6627841 L0.548552048,59.0390608 L6.03687235,23.7432607 Z" id="Path-198" fill="url(#linearGradient-38)"></path>
                                        <rect id="Rectangle-75" fill="#C5E3FF" opacity="0.439651268" x="8.58693051" y="0" width="71.1488528" height="12.2937944" rx="6.14689719"></rect>
                                        <rect id="Rectangle-75-Copy" fill="#FFFFFF" opacity="0.816236413" x="17.173861" y="28.2757271" width="51.5215831" height="4.91751775" rx="2.45875888"></rect>
                                        <rect id="Rectangle-75-Copy-2" fill="#FFFFFF" opacity="0.816236413" x="15.9471567" y="35.6520037" width="29.4409046" height="4.91751775" rx="2.45875888"></rect>
                                    </g>
                                    <g id="数据" transform="translate(155.380236, 53.115863)">
                                        <path d="M43.0569594,0.0864117209 C34.8574221,0.0864117209 22.0308474,0.0864117209 4.57723533,0.0864117209 C3.45765494,0.199462909 2.89786474,1.2263073 2.89786474,3.16694488 C2.89786474,5.10758247 2.12695494,13.9239364 0.585135341,29.6160068 C0.168692454,30.6701086 1.49939245,31.1971595 4.57723533,31.1971595 C7.65507821,31.1971595 18.5467986,31.1971595 37.2523965,31.1971595 C39.6810522,31.8580398 40.89538,30.8019272 40.89538,28.0288217 C40.89538,25.2557163 42.1750279,16.968424 44.7343236,3.16694488 C45.1012305,1.11325611 44.5421091,0.0864117209 43.0569594,0.0864117209 Z" id="Path-199" fill="url(#linearGradient-30)"></path>
                                        <ellipse id="Oval-17" fill-opacity="0.6" fill="#FFFFFF" cx="22.0806785" cy="13.7525533" rx="8.58693051" ry="8.60565607"></ellipse>
                                        <path d="M31.8943133,14.9819327 C31.8943133,8.87122506 26.9513851,3.91751775 20.8539741,3.91751775 L20.8539741,14.9819327 L31.8943133,14.9819327 Z" id="Oval-17-Copy" fill="#FFFFFF"></path>
                                    </g>
                                    <g id="girl" transform="translate(12.309234, 73.180278)">
                                        <path d="M33.5288877,26.5078315 C32.6172448,25.0030477 31.704747,24.2506558 30.7913943,24.2506558 C29.4213652,24.2506558 27.7355494,26.9719636 28.2874593,28.9582371 C28.6553992,30.2824194 30.402542,36.3109958 33.5288877,47.0439663 L25.7488052,47.8612993 L25.7488052,51.5603738 L34.5916733,52.4671508 C38.0440165,52.8105335 39.7701882,51.759995 39.7701882,49.3155352 C39.7701882,46.8710755 37.6897547,39.2685076 33.5288877,26.5078315 Z" id="Path-154" fill="url(#linearGradient-35)"></path>
                                        <path d="M31.3708597,24.3111621 C29.2994472,24.5810796 28.332292,25.9045649 28.4693942,28.281618 C28.6750475,31.8471978 30.9857696,35.9982839 30.9857696,40.8520854 C30.9857696,45.7058868 28.4693942,51.4634481 28.4693942,55.0620984 C28.4693942,57.4611986 29.308186,60.4682151 30.9857696,64.0831478 C27.0996802,67.756578 22.9755138,69.4063732 18.6132703,69.0325334 C14.2510269,68.6586936 10.713584,67.7740684 8.0009417,66.3786577 C10.3171199,58.7935475 10.885528,53.3046116 9.70616584,49.9118501 C7.93712266,44.8227078 1.19494042,27.7478701 4.56603154,24.5239417 C6.81342562,22.374656 15.7483683,22.3037295 31.3708597,24.3111621 Z" id="Path-151" fill="url(#linearGradient-34)"></path>
                                        <path d="M18.6636669,0.0304142315 L26.7032427,0.0304142315 C28.9017825,1.39464235 29.4195079,3.23594663 28.2564188,5.55432706 C26.5117852,9.0318977 24.8259502,9.32808645 24.8259502,12.8700729 C24.8259502,16.4120593 26.9972338,28.5760561 24.8259502,31.2665187 C22.6546665,33.9569812 14.2750613,38.2666628 7.61064691,38.2666628 C0.946232492,38.2666628 -1.19687554,29.2360974 2.35413296,25.093191 C5.90514146,20.9502846 9.85060863,17.3191749 10.825309,14.1919203 C11.8000093,11.0646658 11.3509106,7.17432146 13.2766748,3.60236784 C14.5605176,1.22106544 16.3561817,0.0304142315 18.6636669,0.0304142315 Z" id="Path-152" fill="#3C485A"></path>
                                        <path d="M27.7176572,7.44630372 C28.2198929,9.50467805 28.5356598,10.845307 28.6649579,11.4681905 C28.6974869,11.6248965 28.8823826,11.9851488 29.2196448,12.5489473 C29.0141046,12.717716 28.9281532,12.9135761 28.9617907,13.1365278 C29.1336934,14.2759109 29.2196448,15.2720328 29.2196448,16.1248937 C29.2196448,19.212455 25.9553296,19.2122116 25.4843796,18.670071 C25.1704129,18.3086439 24.8575771,15.8767476 24.5458722,11.374382 L27.7176572,7.44630372 Z" id="Path-153" fill="#C4E3FF"></path>
                                        <g id="Path-202" transform="translate(7.360226, 63.927731)">
                                            <mask id="mask-40" fill="white">
                                                <use xlink:href="#path-39"></use>
                                            </mask>
                                            <use id="Mask" fill="url(#linearGradient-31)" xlink:href="#path-39"></use>
                                            <path d="M13.9594468,28.5051065 C11.8804212,26.6329759 9.74396894,23.2127521 7.55009017,18.2444353 L13.9594468,37.7179552 C13.9594468,33.5136936 13.9594468,30.442744 13.9594468,28.5051065 Z" fill="#0144C6" mask="url(#mask-40)"></path>
                                        </g>
                                    </g>
                                    <g id="man" transform="translate(18.000000, 85.000000)">
                                        <path d="M131.952414,9.52115917 C132.386431,12.492708 132.60344,14.3048374 132.60344,14.9575476 C132.60344,15.9366128 133.683906,17.3450843 132.277927,17.9275349 C132.277927,18.9561294 132.323474,20.386528 132.414568,22.2187307 L132.414599,22.2187292 C132.442025,22.7703497 132.017081,23.2397594 131.46546,23.2671851 C131.44892,23.2680074 131.432362,23.2684188 131.415802,23.2684188 L127.174584,23.2684188 L127.174584,29 L119.08678,29 L119.08678,24.1222843 C118.646084,17.4744125 119.883877,12.8227738 122.80016,10.1673682 C125.716443,7.51196269 128.767194,7.29655967 131.952414,9.52115917 Z" id="Path-156" fill="#C4E3FF"></path>
                                        <path d="M132.357191,0 L123.974928,0 C118.810936,0.118365082 115.613679,2.6814623 114.383156,7.68929166 C113.152634,12.697121 114.886019,18.1340238 119.583311,24 L125.203958,24 L125.70483,19.2561785 C124.551562,16.9469403 123.974928,15.1602677 123.974928,13.8961606 C123.974928,12 125.969442,11.472229 127.828476,12 C128.267096,12.7506014 128.614212,14.3581946 128.869823,16.8227794 C129.424716,16.8227794 129.881036,16.8227794 130.238785,16.8227794 C130.847323,14.2670863 130.847323,12.2142101 130.238785,10.6641509 C129.326144,9.84466958 129.326144,9.16909289 130.238785,8.63742077 C131.607747,7.8399126 135,7.11143702 135,4.34695397 C135,2.50396526 134.119064,1.0549806 132.357191,0 Z" id="Path-155" fill="#3C485A"></path>
                                        <path d="M132.967706,29 L116.466897,29 C112.390447,29.2826892 110.086702,31.5984522 109.555662,35.9472892 C109.024621,40.2961261 108.506067,53.8260871 108,76.5371721 C115.291704,79.8209426 123.614273,79.8209426 132.967706,76.5371721 C132.967706,71.889408 132.145806,57.3684665 132.967706,55.6842333 C133.789607,54 136.912498,46.1307419 135.739692,42.9427388 C134.566887,39.7547358 132.130884,38.1274282 132.130884,34.9527108 C132.130884,32.8362326 132.409825,30.8519956 132.967706,29 Z" id="Path-157" fill="url(#linearGradient-34)"></path>
                                        <path d="M132.832664,29 C135.426763,31.0023709 141.248892,35.9582491 150.299051,43.8676347 C150.935042,44.6077076 152.028142,44.6077076 153.578352,43.8676347 C155.128561,43.1275618 160.060223,41.1753006 168.373338,38.010851 C170.525229,38.3164731 171.354918,39.7772485 170.862407,42.3931771 C168.679637,43.7223566 162.918286,46.6446054 153.578352,51.1599235 C152.342239,52.2800255 150.577901,52.2800255 148.285338,51.1599235 C145.992775,50.0398215 140.672621,46.190436 132.324878,39.6117671 C130.402811,35.7127564 130.572073,32.1755007 132.832664,29 Z" id="Path-158" fill="url(#linearGradient-35)"></path>
                                        <path d="M128.239468,155.187072 C126.079823,157.143391 125,158.912204 125,160.49351 C125,162.074816 130.484163,163.910313 141.452489,166 L142,164.009536 C141.731378,162.325559 140.796246,161.15355 139.194603,160.49351 C136.792139,159.50345 134.501555,158.818414 133.5,156.632864 C132.832296,155.17583 131.078786,154.693899 128.239468,155.187072 Z" id="Path-160" fill="#254AE2"></path>
                                        <path d="M3.17554171,122.808326 C1.40280719,124.414162 0.516439934,125.866083 0.516439934,127.164091 C0.516439934,128.462099 4.99861738,128.912426 13.9629723,128.515074 L14.5970657,127.164091 C14.3762741,126.699667 13.6085277,126.19656 12.2938265,125.654769 C10.3217748,124.842083 8.31574713,125.789097 7.49362511,123.995097 C6.94554377,122.799098 5.50618264,122.403508 3.17554171,122.808326 Z" id="Path-160-Copy" fill="#254AE2"></path>
                                        <path d="M25.1755417,124.808326 C23.4028072,126.414162 22.5164399,127.866083 22.5164399,129.164091 C22.5164399,130.462099 26.9986174,130.912426 35.9629723,130.515074 L35.9629723,129.164091 C36.0908732,128.699667 35.4974731,128.19656 34.1827719,127.654769 C32.2107201,126.842083 30.3157471,127.789097 29.4936251,125.995097 C28.9455438,124.799098 27.5061826,124.403508 25.1755417,124.808326 Z" id="Path-160-Copy-2" fill="#254AE2"></path>
                                        <path d="M96.6297387,149.099768 C95.558552,150.196843 95.8539332,151.18202 97.5158823,152.055298 C99.1778315,152.928576 102.870372,155.139882 108.593504,158.689215 C110.566472,159.475571 111.326286,158.769683 110.872943,156.571551 C110.419601,154.373419 108.165045,152.093243 104.109275,149.731024 C104.776999,148.714852 105.188869,147.730026 105.344884,146.776546 C104.114961,145.592182 102.491509,145 100.474528,145 L96.6297387,149.099768 Z" id="Path-161" fill="#254AE2"></path>
                                        <g id="Path-150" transform="translate(100.000000, 76.000000)">
                                            <mask id="mask-42" fill="white">
                                                <use xlink:href="#path-41"></use>
                                            </mask>
                                            <use id="Mask" fill="url(#linearGradient-31)" xlink:href="#path-41"></use>
                                            <path d="M21.7283825,25.8891823 C21.7283825,25.8891823 16.5907363,17.5851677 15.0027066,12.4509393 C14.6322284,15.8551933 20.3467684,28.6152068 21.7283825,30.6995454 C21.7283825,29.3197205 21.7283825,25.8891823 21.7283825,25.8891823 Z" fill="#0144C6" mask="url(#mask-42)"></path>
                                        </g>
                                    </g>
                                </g>
                            </g>
                            <rect id="Rectangle-5" fill="url(#linearGradient-43)" transform="translate(211.297346, 62.436480) rotate(-41.000000) translate(-211.297346, -62.436480) " x="181.297346" y="61.4364804" width="60" height="2" rx="1"></rect>
                        </g>
                    </g>
                </g>
            </g>
        </g>
    </g>
</svg>